<svg xmlns="http://www.w3.org/2000/svg" id="Layer_2" data-name="Layer 2" viewBox="0 0 723.16 241.38">
  <g id="Layer_1-2" data-name="Layer 1">
    <g>
      <path d="M85.97,241.38c-4.31,0-8.61-1.64-11.89-4.92l-58.62-58.63c-3.18-3.17-4.93-7.4-4.93-11.89s1.75-8.72,4.93-11.89L118.09,51.42c4.42-4.42,4.42-11.61,0-16.03l-26.59-26.59c-4.29-4.28-11.74-4.28-16.03,0L8.78,75.49c-4.36,4.36-4.41,11.5-.11,15.92l22.28,22.63-3.91,3.85-22.29-22.64c-6.39-6.57-6.32-17.16.15-23.63L71.59,4.92c6.56-6.56,17.23-6.56,23.79,0l26.59,26.59c6.56,6.56,6.56,17.23,0,23.78L19.33,157.93c-2.14,2.14-3.32,4.99-3.32,8.01s1.18,5.87,3.32,8.01l58.62,58.63c4.29,4.28,11.74,4.28,16.03,0l26.55-26.55c2.14-2.14,3.32-4.99,3.32-8.01s-1.18-5.87-3.32-8.01l-42.59-42.59c-3.18-3.18-4.93-7.4-4.93-11.89s1.75-8.72,4.93-11.89l23.66-23.66,3.88,3.88-23.66,23.66c-4.42,4.42-4.42,11.61,0,16.03l42.59,42.59c3.18,3.17,4.93,7.4,4.93,11.89s-1.75,8.72-4.93,11.89l-26.55,26.55c-3.28,3.28-7.59,4.92-11.89,4.92Z" fill="#7fccd1"/>
      <g>
        <path d="M209.58,161.96c-5.75,0-11.07-1.08-15.95-3.24-4.88-2.16-9.12-5.11-12.71-8.85-3.6-3.75-6.4-8.19-8.4-13.34-2.01-5.15-3.01-10.71-3.01-16.69s1-11.58,3.01-16.57c2-4.99,4.81-9.25,8.4-12.77,3.59-3.52,7.83-6.24,12.71-8.17,4.88-1.93,10.2-2.89,15.95-2.89h44.73v14.42h-44.73c-3.71,0-7.13.66-10.27,1.99-3.14,1.33-5.85,3.16-8.12,5.51-2.27,2.35-4.05,5.15-5.34,8.4-1.29,3.25-1.93,6.85-1.93,10.78s.64,7.45,1.93,10.78c1.29,3.33,3.07,6.19,5.34,8.57,2.27,2.38,4.98,4.26,8.12,5.62,3.14,1.36,6.56,2.04,10.27,2.04h44.73v14.42h-44.73Z" fill="#7fccd1"/>
        <path d="M317.22,161.96c-5.75,0-11.07-1.08-15.95-3.24-4.88-2.16-9.12-5.11-12.71-8.85-3.6-3.75-6.4-8.19-8.4-13.34-2.01-5.15-3.01-10.71-3.01-16.69s1-11.58,3.01-16.57c2-4.99,4.81-9.25,8.4-12.77,3.59-3.52,7.83-6.24,12.71-8.17,4.88-1.93,10.2-2.89,15.95-2.89h20.09c5.98,0,11.45.98,16.4,2.95,4.96,1.97,9.21,4.73,12.77,8.29,3.56,3.56,6.32,7.81,8.29,12.77,1.97,4.96,2.95,10.43,2.95,16.4s-1,11.54-3.01,16.69c-2.01,5.15-4.81,9.59-8.4,13.34-3.6,3.75-7.85,6.7-12.77,8.85-4.92,2.16-10.33,3.24-16.23,3.24h-20.09ZM337.31,147.54c3.78,0,7.27-.68,10.44-2.04,3.18-1.36,5.92-3.24,8.23-5.62,2.31-2.38,4.1-5.24,5.39-8.57,1.29-3.33,1.93-6.92,1.93-10.78s-.64-7.44-1.93-10.73c-1.29-3.29-3.08-6.11-5.39-8.46-2.31-2.34-5.05-4.18-8.23-5.51-3.18-1.32-6.66-1.99-10.44-1.99h-20.09c-3.71,0-7.13.66-10.27,1.99-3.14,1.33-5.85,3.16-8.12,5.51-2.27,2.35-4.05,5.15-5.34,8.4-1.29,3.25-1.93,6.85-1.93,10.78s.64,7.45,1.93,10.78c1.29,3.33,3.07,6.19,5.34,8.57,2.27,2.38,4.98,4.26,8.12,5.62,3.14,1.36,6.56,2.04,10.27,2.04h20.09Z" fill="#7fccd1"/>
        <path d="M400.77,161.96v-82.53h47.79c5.83,0,11.2.98,16.12,2.95,4.92,1.97,9.16,4.73,12.71,8.29,3.56,3.56,6.34,7.81,8.34,12.77,2,4.96,3.01,10.43,3.01,16.4s-1,11.54-3.01,16.69c-2.01,5.15-4.79,9.59-8.34,13.34-3.56,3.75-7.8,6.7-12.71,8.85-4.92,2.16-10.29,3.24-16.12,3.24h-47.79ZM448.56,147.54c3.71,0,7.13-.68,10.27-2.04,3.14-1.36,5.86-3.24,8.17-5.62,2.31-2.38,4.1-5.24,5.39-8.57,1.29-3.33,1.93-6.92,1.93-10.78s-.64-7.44-1.93-10.73c-1.29-3.29-3.08-6.11-5.39-8.46-2.31-2.34-5.03-4.18-8.17-5.51-3.14-1.32-6.57-1.99-10.27-1.99h-33.49v53.69h33.49Z" fill="#7fccd1"/>
        <path d="M511.79,161.96v-82.53h73.67v14.42h-59.37v53.69h59.48v14.42h-73.79ZM536.65,126.08v-12.15h45.75v12.15h-45.75Z" fill="#7fccd1"/>
        <path d="M608.51,161.96v-82.53h14.42v82.53h-14.42Z" fill="#7fccd1"/>
        <path d="M677.41,161.96v-68.11h-31.33v-14.42h77.08v14.42h-31.33v68.11h-14.42Z" fill="#7fccd1"/>
      </g>
    </g>
  </g>
</svg>